# xmcd
#
# Track frame offsets:
# 150
# 5208
# 43116
# 67786
# 83682
# 103419
# 156643
# 171960
# 176982
# 190201
# 208307
# 221055
# 237885
# 269821
# 286932
# 306364
#
# Disc length: 4360 seconds
#
#
# Revision: 3
# Processed by: cddbd v1.5.2PL0 Copyright (c) Steve Scherf et al.
# Submitted via: FreeRIP 2.951 
#
DISCID=00110610
DTITLE=Abraham - Hicks - Law Of Attraction - Basics of the Teachings of Abraham
DYEAR=2007
DGENRE=New Age
TTITLE0=02-01 Abraham-Hicks Publications
TTITLE1=02-02 Abraham and Universal Laws
TTITLE2=02-03 Our Emotional Guidance System
TTITLE3=02-04 Speeding Deliberate Creation
TTITLE4=02-05 A Welcome to Planet Earth
TTITLE5=02-06 Creation Workshop Exercise
TTITLE6=02-07 Using the Law of Attraction
TTITLE7=02-08 To Avoid Feeling Disappointed
TTITLE8=02-09 Pain Caused by Televised Pain
TTITLE9=02-10 When Having Negative Emotion
TTITLE10=02-11 Dreams and Repelling 'Evil'
TTITLE11=02-12 How to Know What We Want
TTITLE12=02-13 Co-creating Wanted and Unwanted
TTITLE13=02-14 How to Create a Happier Life
TTITLE14=02-15 When Do I Influence Others
TTITLE15=02-16 The Measure of Success
EXTD=
EXTT0=
EXTT1=
EXTT2=
EXTT3=
EXTT4=
EXTT5=
EXTT6=
EXTT7=
EXTT8=
EXTT9=
EXTT10=
EXTT11=
EXTT12=
EXTT13=
EXTT14=
EXTT15=
PLAYORDER=
